<?xml version="1.0" encoding="UTF-8" standalone="no"?>
<!-- Created with Inkscape (http://www.inkscape.org/) -->

<svg
   version="1.1"
   id="svg2"
   xml:space="preserve"
   width="870.18182"
   height="143.86667"
   viewBox="0 0 870.18182 143.86667"
   sodipodi:docname="DEP_MODIFICADO.svg"
   inkscape:version="1.1.2 (0a00cf5339, 2022-02-04)"
   inkscape:export-filename="/home/kimey/Descargas/03_DIRECCIÓN DE ESTADÍSTICA DE LA PROVINCIA/dep_logo.png"
   inkscape:export-xdpi="96"
   inkscape:export-ydpi="96"
   xmlns:inkscape="http://www.inkscape.org/namespaces/inkscape"
   xmlns:sodipodi="http://sodipodi.sourceforge.net/DTD/sodipodi-0.dtd"
   xmlns="http://www.w3.org/2000/svg"
   xmlns:svg="http://www.w3.org/2000/svg"><defs
     id="defs6"><clipPath
       clipPathUnits="userSpaceOnUse"
       id="clipPath16"><path
         d="M 0,612 H 792 V 0 H 0 Z"
         id="path14" /></clipPath></defs><sodipodi:namedview
     id="namedview4"
     pagecolor="#ffffff"
     bordercolor="#666666"
     borderopacity="1.0"
     inkscape:pageshadow="2"
     inkscape:pageopacity="0.0"
     inkscape:pagecheckerboard="0"
     showgrid="false"
     fit-margin-top="0"
     fit-margin-left="0"
     fit-margin-right="0"
     fit-margin-bottom="0"
     inkscape:zoom="0.48526936"
     inkscape:cx="140.12836"
     inkscape:cy="-57.699913"
     inkscape:window-width="1339"
     inkscape:window-height="744"
     inkscape:window-x="27"
     inkscape:window-y="0"
     inkscape:window-maximized="1"
     inkscape:current-layer="g12" /><g
     id="g8"
     inkscape:groupmode="layer"
     inkscape:label="DIRECCIÓN DE ESTADÍSTICA DE LA PROVINCIA"
     transform="matrix(1.3333333,0,0,-1.3333333,-93.792264,480.87332)"><g
       id="g10"><g
         id="g12"
         clip-path="url(#clipPath16)"><g
           id="g18"
           transform="translate(530.7585,269.9394)"><path
             d="m 0,0 c -7.828,0 -15.277,4.049 -20.973,11.401 -5.977,7.713 -9.269,18.019 -9.269,29.019 0,11 3.292,21.306 9.269,29.019 5.696,7.352 13.145,11.401 20.973,11.401 7.828,0 15.277,-4.049 20.973,-11.401 5.977,-7.713 9.268,-18.019 9.268,-29.019 0,-11 -3.291,-21.306 -9.268,-29.019 C 15.277,4.049 7.828,0 0,0"
             style="fill:#89c8e8;fill-opacity:1;fill-rule:nonzero;stroke:none"
             id="path20" /></g><g
           id="g22"
           transform="translate(560.9268,313.1526)"><path
             d="m 0,0 h -7.94 v 9.794 h -10.722 v 3.088 H -40.877 V 9.794 H -52.405 V 0 h -7.932 c -0.047,-0.925 -0.073,-1.857 -0.073,-2.793 0,-7.268 1.438,-14.233 4.137,-20.347 h 3.868 11.528 22.215 10.722 3.876 c 2.699,6.114 4.137,13.079 4.137,20.347 C 0.073,-1.857 0.047,-0.925 0,0"
             style="fill:#ffffff;fill-opacity:1;fill-rule:nonzero;stroke:none"
             id="path24" /></g><g
           id="g26"
           transform="translate(525.5797,309.3445)"><path
             d="m 0,0 v -1.017 -5.829 -1.018 -2.237 -1.017 -5.829 -1.017 h 10.688 v 1.017 5.829 1.017 2.237 1.018 5.829 V 0 C 5.428,1.62 0,0 0,0"
             style="fill:#035b9e;fill-opacity:1;fill-rule:nonzero;stroke:none"
             id="path28" /></g><g
           id="g30"
           transform="translate(510.0298,303.4948)"><path
             d="M 0,0 V -3.536 -5.217 -8.753 H 6.249 V -5.217 -3.536 0 C 3.174,0.837 0,0 0,0"
             style="fill:#035b9e;fill-opacity:1;fill-rule:nonzero;stroke:none"
             id="path32" /></g><g
           id="g34"
           transform="translate(545.5493,303.4948)"><path
             d="M 0,0 V -3.536 -5.217 -8.753 H 6.249 V -5.217 -3.536 0 C 3.174,0.837 0,0 0,0"
             style="fill:#035b9e;fill-opacity:1;fill-rule:nonzero;stroke:none"
             id="path36" /></g><path
           d="M 542.265,324.49 H 520.05 v 1.544 h 22.215 z m -1.355,-6.706 h -1.552 v 5.162 h 1.552 z m 0,-3.088 h -1.552 v 1.544 h 1.552 z m -3.095,3.088 v 0 -0.005 h -1.791 l -3.18,1.721 c -0.082,0.168 -0.204,0.392 -0.366,0.616 -0.448,0.619 -0.985,0.945 -1.555,0.945 -0.569,0 -1.107,-0.326 -1.554,-0.945 -0.163,-0.224 -0.285,-0.448 -0.366,-0.616 l -3.181,-1.721 h -1.783 v 5.167 h 13.776 z m -15.32,0 h -1.552 v 5.162 h 1.552 z m 0,-3.088 h -1.552 v 1.544 h 1.552 z m -13.973,0 v 1.66 6.59 h 10.877 v -5.162 h -1.666 v -1.428 -0.116 h 1.666 v -1.544 z m 33.933,1.544 h 1.666 v 0.116 1.428 h -1.666 v 5.162 h 10.531 v -6.59 -1.66 h -10.531 z m 18.529,-4.632 h -18.529 v 1.544 h 18.471 c -0.055,1.077 -0.141,2.146 -0.259,3.204 -0.068,0.608 -0.147,1.211 -0.235,1.812 h -5.144 -0.749 -0.008 v 4.778 1.544 h -1.545 -9.177 v 1.545 h 1.501 v 1.544 h -28.306 v -1.544 h 1.502 v -1.545 h -9.984 -1.544 v -1.544 -4.786 h -5.895 c -0.088,-0.598 -0.167,-1.199 -0.234,-1.804 -0.118,-1.058 -0.204,-2.127 -0.259,-3.204 h 18.809 v -1.544 h -1.225 -17.642 c -0.009,-0.415 -0.015,-0.832 -0.015,-1.249 0,-0.099 0.002,-0.197 0.002,-0.295 h 17.655 1.225 v -15.323 h 1.544 v 18.411 h 1.552 v -18.411 h 1.544 v 21.499 h 0.947 1.078 l 0.214,0.116 3.376,1.827 0.207,0.109 0.098,0.262 c 0.004,0.009 0.391,0.969 0.964,0.969 0.573,0 0.961,-0.96 0.964,-0.969 l 0.099,-0.262 0.206,-0.109 3.376,-1.827 0.214,-0.116 h 1.078 0.955 v -1.544 -1.544 -18.411 h 1.544 v 18.411 h 1.551 v -18.411 h 1.545 v 15.323 h 18.542 c 0,0.098 0.002,0.196 0.002,0.295 0,0.417 -0.006,0.834 -0.015,1.249"
           style="fill:#035b9e;fill-opacity:1;fill-rule:nonzero;stroke:none"
           id="path38" /><g
           id="g40"
           transform="translate(532.6761,313.9247)"><path
             d="m 0,0 c 0,1.279 -0.785,2.316 -1.753,2.316 -0.968,0 -1.752,-1.037 -1.752,-2.316 0,-1.279 0.784,-2.316 1.752,-2.316 C -0.785,-2.316 0,-1.279 0,0"
             style="fill:#035b9e;fill-opacity:1;fill-rule:nonzero;stroke:none"
             id="path42" /></g><g
           id="g44"
           transform="translate(567.6096,294.3566)"><path
             d="M 0,0 -3.151,1.305 C -3.464,1.435 -3.816,1.26 -3.908,0.935 -5.027,-3.053 -6.57,-6.78 -8.465,-10.158 c -0.124,-0.22 -0.087,-0.494 0.091,-0.672 l 2.48,-2.48 c 0.26,-0.26 0.698,-0.207 0.884,0.11 2.263,3.852 4.055,8.066 5.338,12.522 C 0.407,-0.402 0.265,-0.11 0,0"
             style="fill:#035b9e;fill-opacity:1;fill-rule:nonzero;stroke:none"
             id="path46" /></g><g
           id="g48"
           transform="translate(565.7657,309.1507)"><path
             d="m 0,0 c -0.096,-3.772 -0.553,-7.427 -1.325,-10.913 -0.059,-0.267 0.08,-0.536 0.332,-0.641 l 3.173,-1.314 c 0.321,-0.133 0.688,0.053 0.766,0.391 0.929,4.009 1.458,8.185 1.56,12.45 C 4.513,0.289 4.256,0.55 3.94,0.55 H 0.561 C 0.255,0.55 0.008,0.305 0,0"
             style="fill:#035b9e;fill-opacity:1;fill-rule:nonzero;stroke:none"
             id="path50" /></g><g
           id="g52"
           transform="translate(564.4409,323.0695)"><path
             d="m 0,0 c 0.772,-3.485 1.229,-7.14 1.325,-10.911 0.008,-0.305 0.255,-0.55 0.561,-0.55 h 3.379 c 0.316,0 0.573,0.261 0.565,0.577 C 5.728,-6.62 5.2,-2.445 4.272,1.564 4.193,1.902 3.826,2.088 3.505,1.955 L 0.332,0.641 C 0.08,0.536 -0.059,0.267 0,0"
             style="fill:#035b9e;fill-opacity:1;fill-rule:nonzero;stroke:none"
             id="path54" /></g><g
           id="g56"
           transform="translate(557.5429,281.5562)"><path
             d="m 0,0 c -2.576,-3.943 -5.663,-7.311 -9.129,-9.933 -0.205,-0.155 -0.28,-0.426 -0.182,-0.663 l 1.333,-3.219 c 0.139,-0.334 0.553,-0.457 0.847,-0.246 3.177,2.285 6.08,5.113 8.665,8.449 0.641,0.828 1.255,1.68 1.845,2.554 0.151,0.223 0.12,0.523 -0.07,0.714 L 0.871,0.094 C 0.617,0.348 0.196,0.3 0,0"
             style="fill:#035b9e;fill-opacity:1;fill-rule:nonzero;stroke:none"
             id="path58" /></g><g
           id="g60"
           transform="translate(493.9073,294.3566)"><path
             d="M 0,0 3.151,1.305 C 3.464,1.435 3.816,1.26 3.908,0.935 5.027,-3.053 6.57,-6.78 8.465,-10.158 c 0.124,-0.22 0.087,-0.494 -0.091,-0.672 l -2.48,-2.48 C 5.634,-13.57 5.196,-13.517 5.01,-13.2 2.747,-9.348 0.955,-5.134 -0.328,-0.678 -0.407,-0.402 -0.265,-0.11 0,0"
             style="fill:#035b9e;fill-opacity:1;fill-rule:nonzero;stroke:none"
             id="path62" /></g><g
           id="g64"
           transform="translate(495.751,309.1507)"><path
             d="m 0,0 c 0.096,-3.772 0.553,-7.427 1.325,-10.913 0.059,-0.267 -0.08,-0.536 -0.332,-0.641 l -3.173,-1.314 c -0.321,-0.133 -0.688,0.053 -0.766,0.391 -0.929,4.009 -1.457,8.185 -1.56,12.45 -0.007,0.316 0.25,0.577 0.566,0.577 h 3.379 C -0.255,0.55 -0.008,0.305 0,0"
             style="fill:#035b9e;fill-opacity:1;fill-rule:nonzero;stroke:none"
             id="path66" /></g><g
           id="g68"
           transform="translate(497.0758,323.0695)"><path
             d="m 0,0 c -0.772,-3.485 -1.229,-7.14 -1.325,-10.911 -0.008,-0.305 -0.255,-0.55 -0.56,-0.55 h -3.38 c -0.316,0 -0.573,0.261 -0.565,0.577 0.102,4.264 0.63,8.439 1.559,12.448 0.078,0.338 0.445,0.524 0.766,0.391 L -0.332,0.641 C -0.08,0.536 0.059,0.267 0,0"
             style="fill:#035b9e;fill-opacity:1;fill-rule:nonzero;stroke:none"
             id="path70" /></g><g
           id="g72"
           transform="translate(503.9738,281.5562)"><path
             d="m 0,0 c 2.576,-3.943 5.663,-7.311 9.129,-9.933 0.205,-0.155 0.28,-0.426 0.182,-0.663 l -1.333,-3.219 c -0.139,-0.334 -0.553,-0.457 -0.847,-0.246 -3.177,2.285 -6.08,5.113 -8.665,8.449 -0.641,0.828 -1.255,1.68 -1.845,2.554 -0.151,0.223 -0.12,0.523 0.07,0.714 l 2.438,2.438 C -0.617,0.348 -0.196,0.3 0,0"
             style="fill:#035b9e;fill-opacity:1;fill-rule:nonzero;stroke:none"
             id="path74" /></g><g
           id="g76"
           transform="translate(493.9068,326.9505)"><path
             d="m 0,0 3.151,-1.305 c 0.313,-0.13 0.665,0.045 0.757,0.37 1.119,3.988 2.662,7.715 4.557,11.093 0.124,0.22 0.087,0.494 -0.091,0.672 l -2.48,2.48 C 5.634,13.57 5.196,13.517 5.01,13.2 2.747,9.348 0.955,5.134 -0.328,0.678 -0.407,0.402 -0.265,0.11 0,0"
             style="fill:#035b9e;fill-opacity:1;fill-rule:nonzero;stroke:none"
             id="path78" /></g><g
           id="g80"
           transform="translate(503.9734,339.751)"><path
             d="m 0,0 c 2.576,3.943 5.663,7.311 9.129,9.933 0.205,0.155 0.28,0.426 0.182,0.663 L 7.978,13.815 C 7.839,14.149 7.425,14.272 7.131,14.061 3.954,11.776 1.051,8.948 -1.534,5.612 -2.175,4.784 -2.789,3.932 -3.379,3.058 -3.53,2.835 -3.499,2.535 -3.309,2.344 l 2.438,-2.438 C -0.617,-0.348 -0.196,-0.3 0,0"
             style="fill:#035b9e;fill-opacity:1;fill-rule:nonzero;stroke:none"
             id="path82" /></g><g
           id="g84"
           transform="translate(567.609,326.9505)"><path
             d="m 0,0 -3.151,-1.305 c -0.313,-0.13 -0.665,0.045 -0.757,0.37 -1.119,3.988 -2.662,7.715 -4.557,11.093 -0.124,0.22 -0.087,0.494 0.091,0.672 l 2.48,2.48 c 0.26,0.26 0.698,0.207 0.884,-0.11 C -2.747,9.348 -0.955,5.134 0.328,0.678 0.407,0.402 0.265,0.11 0,0"
             style="fill:#035b9e;fill-opacity:1;fill-rule:nonzero;stroke:none"
             id="path86" /></g><g
           id="g88"
           transform="translate(557.5424,339.751)"><path
             d="m 0,0 c -2.576,3.943 -5.663,7.311 -9.129,9.933 -0.205,0.155 -0.28,0.426 -0.182,0.663 l 1.333,3.219 c 0.139,0.334 0.553,0.457 0.847,0.246 3.177,-2.285 6.08,-5.113 8.665,-8.449 C 2.175,4.784 2.789,3.932 3.379,3.058 3.53,2.835 3.499,2.535 3.309,2.344 L 0.871,-0.094 C 0.617,-0.348 0.196,-0.3 0,0"
             style="fill:#035b9e;fill-opacity:1;fill-rule:nonzero;stroke:none"
             id="path90" /></g><g
           id="g92"
           transform="translate(530.7584,257.7611)"><path
             d="M 0,0 C -2.208,0.817 -4.389,1.702 -6.539,2.658 H -6.54 C -4.389,1.702 -2.209,0.817 0,0"
             style="fill:#035b9e;fill-opacity:1;fill-rule:nonzero;stroke:none"
             id="path94" /></g><g
           id="g96"
           transform="translate(540.0005,261.6625)"><path
             d="M 0,0 C 2.623,1.252 5.198,2.608 7.721,4.069 7.946,4.199 8.044,4.471 7.958,4.73 L 7.946,4.767 6.627,8.138 C 6.585,8.227 6.501,8.299 6.396,8.332 6.291,8.364 6.175,8.351 6.078,8.296 2.061,5.982 -2.163,3.916 -6.512,2.118 -4.361,1.344 -2.188,0.635 0,0"
             style="fill:#035b9e;fill-opacity:1;fill-rule:nonzero;stroke:none"
             id="path98" /></g><g
           id="g100"
           transform="translate(540.356,347.5679)"><path
             d="m 0,0 c 0,6.841 -4.297,12.387 -9.598,12.387 -5.3,0 -9.597,-5.546 -9.597,-12.387 0,-6.002 3.308,-11.006 7.699,-12.143 l 1.235,-1.236 c 0.366,-0.366 0.96,-0.366 1.327,0 l 1.235,1.236 C -3.308,-11.006 0,-6.002 0,0"
             style="fill:#ffcc08;fill-opacity:1;fill-rule:nonzero;stroke:none"
             id="path102" /></g><g
           id="g104"
           transform="translate(518.2642,347.4602)"><path
             d="m 0,0 c 3.154,0.138 6.267,1.41 8.676,3.818 2.408,2.409 3.68,5.522 3.818,8.676 C 9.34,12.356 6.227,11.084 3.818,8.676 1.41,6.268 0.138,3.154 0,0"
             style="fill:#89c8e8;fill-opacity:1;fill-rule:nonzero;stroke:none"
             id="path106" /></g><g
           id="g108"
           transform="translate(543.2525,347.4602)"><path
             d="m 0,0 c -0.138,3.154 -1.41,6.268 -3.818,8.676 -2.409,2.408 -5.522,3.68 -8.676,3.818 0.138,-3.154 1.41,-6.267 3.818,-8.676 C -6.267,1.41 -3.154,0.138 0,0"
             style="fill:#89c8e8;fill-opacity:1;fill-rule:nonzero;stroke:none"
             id="path110" /></g><g
           id="g112"
           transform="translate(535.0429,351.8078)"><path
             d="M 0,0 C -1.987,1.987 -3.224,4.566 -3.535,7.338 -0.763,7.026 1.816,5.789 3.803,3.803 5.789,1.816 7.026,-0.763 7.338,-3.535 4.566,-3.224 1.987,-1.986 0,0 m -2.573,-15.661 -0.197,-0.051 -1.379,-1.379 c -0.074,-0.075 -0.196,-0.075 -0.271,0 l -1.379,1.379 -0.197,0.051 c -4.081,1.057 -7.057,5.746 -7.137,11.196 2.102,0.662 4.03,1.82 5.619,3.408 1.454,1.455 2.547,3.195 3.23,5.092 0.682,-1.896 1.775,-3.635 3.229,-5.09 1.589,-1.588 3.517,-2.746 5.619,-3.408 -0.08,-5.451 -3.055,-10.141 -7.137,-11.198 m -13.334,12.124 c 0.311,2.772 1.549,5.351 3.535,7.338 1.987,1.986 4.566,3.224 7.338,3.535 -0.312,-2.772 -1.549,-5.351 -3.535,-7.338 -1.987,-1.986 -4.566,-3.224 -7.338,-3.535 m 24.8,-0.776 C 8.742,-0.85 7.308,2.406 4.857,4.857 2.661,7.053 -0.182,8.426 -3.24,8.799 c -0.344,0.029 -0.692,0.048 -1.043,0.048 -0.341,0 -0.678,-0.019 -1.012,-0.046 -3.071,-0.366 -5.927,-1.741 -8.132,-3.946 -2.451,-2.451 -3.884,-5.707 -4.036,-9.17 l -0.035,-0.813 0.813,0.035 c 0.7,0.031 1.39,0.116 2.068,0.25 0.213,-5.873 3.519,-10.915 8.047,-12.207 l 1.095,-1.096 c 0.328,-0.328 0.759,-0.492 1.19,-0.492 0.431,0 0.863,0.164 1.191,0.492 l 1.095,1.096 c 4.528,1.292 7.834,6.335 8.047,12.208 0.677,-0.133 1.368,-0.218 2.068,-0.249 l 0.813,-0.035 z"
             style="fill:#035b9e;fill-opacity:1;fill-rule:nonzero;stroke:none"
             id="path114" /></g><g
           id="g116"
           transform="translate(547.8095,257.1737)"><path
             d="m 0,0 c 0.081,0.267 -0.084,0.545 -0.358,0.602 -11.134,2.321 -22.186,6.523 -32.014,12.183 -0.096,0.055 -0.212,0.068 -0.318,0.035 -0.104,-0.032 -0.188,-0.104 -0.235,-0.202 l -1.311,-3.35 -0.016,-0.049 c -0.085,-0.259 0.013,-0.531 0.238,-0.661 10.058,-5.824 20.949,-10.003 32.382,-12.434 0.243,-0.051 0.485,0.092 0.557,0.329 z"
             style="fill:#035b9e;fill-opacity:1;fill-rule:nonzero;stroke:none"
             id="path118" /></g><g
           id="g120"
           transform="translate(515.356,253.3005)"><path
             d="M 0,0 C 4.26,0.907 8.444,2.057 12.538,3.444 10.326,4.315 8.143,5.255 5.991,6.264 3.544,5.572 1.081,4.967 -1.386,4.455 -1.637,4.403 -1.789,4.148 -1.715,3.902 L -0.648,0.383 C -0.564,0.107 -0.282,-0.06 0,0"
             style="fill:#035b9e;fill-opacity:1;fill-rule:nonzero;stroke:none"
             id="path122" /></g><g
           id="g124"
           transform="translate(560.997,310.0644)"><path
             d="M 0,0 H 0.071 V 1.544 H -0.013 C -0.004,1.129 0.003,0.712 0.003,0.295 0.003,0.196 0.001,0.098 0,0"
             style="fill:#035b9e;fill-opacity:1;fill-rule:nonzero;stroke:none"
             id="path126" /></g><g
           id="g128"
           transform="translate(504.8474,289.5833)"><path
             d="m 0,0 c 0.17,-0.375 0.343,-0.747 0.523,-1.115 h 50.776 c 0.179,0.368 0.353,0.74 0.523,1.115 z"
             style="fill:#035b9e;fill-opacity:1;fill-rule:nonzero;stroke:none"
             id="path130" /></g><g
           id="g132"
           transform="translate(504.8474,289.5833)"><path
             d="m 0,0 h 51.822 c 0.065,0.143 0.13,0.286 0.193,0.429 H -0.193 C -0.13,0.286 -0.065,0.143 0,0"
             style="fill:#035b9e;fill-opacity:1;fill-rule:nonzero;stroke:none"
             id="path134" /></g><g
           id="g136"
           transform="translate(507.0401,285.3804)"><path
             d="m 0,0 h 47.437 c 0.301,0.507 0.593,1.021 0.875,1.544 H -0.876 C -0.594,1.021 -0.302,0.507 0,0"
             style="fill:#035b9e;fill-opacity:1;fill-rule:nonzero;stroke:none"
             id="path138" /></g><g
           id="g140"
           transform="translate(509.0735,282.2921)"><path
             d="m 0,0 h 43.37 c 0.367,0.505 0.722,1.02 1.067,1.544 H -1.067 C -0.723,1.02 -0.367,0.505 0,0"
             style="fill:#035b9e;fill-opacity:1;fill-rule:nonzero;stroke:none"
             id="path142" /></g><g
           id="g144"
           transform="translate(511.5754,279.2039)"><path
             d="m 0,0 h 38.366 c 0.449,0.496 0.89,1.011 1.32,1.544 H -1.32 C -0.89,1.011 -0.449,0.496 0,0"
             style="fill:#035b9e;fill-opacity:1;fill-rule:nonzero;stroke:none"
             id="path146" /></g><g
           id="g148"
           transform="translate(514.7668,276.1158)"><path
             d="m 0,0 h 31.983 c 0.579,0.488 1.148,1.002 1.705,1.544 H -1.705 C -1.148,1.002 -0.579,0.488 0,0"
             style="fill:#035b9e;fill-opacity:1;fill-rule:nonzero;stroke:none"
             id="path150" /></g><g
           id="g152"
           transform="translate(519.215,273.0276)"><path
             d="m 0,0 h 23.087 c 0.833,0.465 1.65,0.979 2.451,1.544 H -2.451 C -1.651,0.979 -0.833,0.465 0,0"
             style="fill:#035b9e;fill-opacity:1;fill-rule:nonzero;stroke:none"
             id="path154" /></g><g
           id="g156"
           transform="translate(530.7584,269.9394)"><path
             d="M 0,0 C 2.82,0 5.59,0.528 8.247,1.544 H -8.247 C -5.59,0.528 -2.82,0 0,0"
             style="fill:#035b9e;fill-opacity:1;fill-rule:nonzero;stroke:none"
             id="path158" /></g><g
           id="g160"
           transform="translate(592.1881,319.7416)"><path
             d="M 0,0 H 4.023 V -3.133 C 3.588,-3.477 3.047,-3.776 2.414,-4.022 1.763,-4.274 1.058,-4.402 0.32,-4.402 c -0.786,0 -1.502,0.136 -2.127,0.406 -0.625,0.27 -1.165,0.649 -1.605,1.128 -0.441,0.478 -0.786,1.054 -1.026,1.712 -0.24,0.659 -0.361,1.388 -0.361,2.166 0,0.727 0.124,1.423 0.37,2.069 0.246,0.646 0.588,1.217 1.018,1.696 0.428,0.479 0.95,0.864 1.55,1.147 0.599,0.281 1.263,0.424 1.974,0.424 0.456,0 0.877,-0.037 1.253,-0.111 C 1.741,6.161 2.089,6.058 2.402,5.93 2.715,5.801 3.01,5.646 3.28,5.468 3.551,5.289 3.814,5.086 4.06,4.864 L 4.146,4.787 5.258,6.094 5.172,6.167 C 4.841,6.446 4.497,6.7 4.149,6.922 3.797,7.145 3.415,7.336 3.014,7.489 2.612,7.642 2.173,7.759 1.708,7.835 1.244,7.911 0.727,7.95 0.169,7.95 -0.837,7.95 -1.764,7.759 -2.588,7.383 -3.41,7.006 -4.125,6.493 -4.711,5.855 -5.297,5.218 -5.759,4.469 -6.084,3.628 -6.408,2.787 -6.573,1.897 -6.573,0.981 c 0,-0.954 0.158,-1.863 0.47,-2.702 0.312,-0.842 0.772,-1.585 1.365,-2.21 0.594,-0.626 1.318,-1.124 2.153,-1.481 0.835,-0.357 1.793,-0.538 2.849,-0.538 1.13,0 2.165,0.203 3.077,0.603 0.906,0.399 1.682,0.884 2.305,1.442 l 0.038,0.033 V 1.547 H 0 Z"
             style="fill:#035b9e;fill-opacity:1;fill-rule:nonzero;stroke:none"
             id="path162" /></g><g
           id="g164"
           transform="translate(611.8481,318.639)"><path
             d="m 0,0 c -0.252,-0.645 -0.603,-1.214 -1.045,-1.693 -0.441,-0.477 -0.978,-0.859 -1.597,-1.135 -0.618,-0.276 -1.305,-0.415 -2.041,-0.415 -0.736,0 -1.423,0.143 -2.04,0.424 -0.62,0.282 -1.164,0.668 -1.618,1.146 -0.454,0.479 -0.812,1.051 -1.063,1.701 -0.252,0.65 -0.379,1.355 -0.379,2.094 0,0.738 0.127,1.439 0.379,2.084 0.251,0.644 0.603,1.214 1.045,1.692 0.441,0.478 0.978,0.86 1.597,1.136 0.618,0.275 1.305,0.415 2.041,0.415 0.736,0 1.422,-0.143 2.041,-0.424 C -2.061,6.742 -1.516,6.356 -1.062,5.878 -0.609,5.4 -0.252,4.828 0,4.177 0.252,3.525 0.38,2.821 0.38,2.084 0.38,1.347 0.252,0.645 0,0 m 0.271,6.987 c -0.599,0.631 -1.325,1.138 -2.16,1.508 -0.836,0.37 -1.776,0.557 -2.794,0.557 -1.018,0 -1.962,-0.19 -2.803,-0.567 -0.841,-0.375 -1.572,-0.889 -2.171,-1.527 -0.599,-0.636 -1.07,-1.383 -1.401,-2.217 -0.332,-0.834 -0.5,-1.728 -0.5,-2.657 0,-0.928 0.165,-1.822 0.49,-2.657 0.325,-0.835 0.794,-1.578 1.392,-2.209 0.6,-0.631 1.327,-1.138 2.162,-1.508 0.835,-0.369 1.775,-0.557 2.793,-0.557 1.018,0 1.962,0.191 2.804,0.567 0.84,0.375 1.57,0.889 2.17,1.527 0.599,0.637 1.07,1.382 1.401,2.217 0.331,0.834 0.499,1.728 0.499,2.658 0,0.929 -0.164,1.823 -0.489,2.656 C 1.339,5.613 0.87,6.356 0.271,6.987"
             style="fill:#035b9e;fill-opacity:1;fill-rule:nonzero;stroke:none"
             id="path166" /></g><g
           id="g168"
           transform="translate(625.1729,316.1701)"><path
             d="m 0,0 c -0.555,-0.401 -1.332,-0.604 -2.308,-0.604 h -4.315 v 4.459 h 4.051 c 1.128,0 1.987,-0.195 2.556,-0.578 C 0.547,2.897 0.82,2.372 0.82,1.673 0.82,0.946 0.552,0.399 0,0 m -6.623,9.748 h 3.899 c 0.912,0 1.618,-0.19 2.097,-0.564 0.478,-0.373 0.71,-0.866 0.71,-1.505 0,-0.752 -0.261,-1.305 -0.8,-1.691 C -1.26,5.599 -1.973,5.402 -2.836,5.402 H -6.623 Z M 1.675,3.782 C 1.417,4.041 1.106,4.267 0.752,4.454 0.483,4.596 0.199,4.718 -0.096,4.819 0.082,4.91 0.256,5.014 0.424,5.131 0.677,5.306 0.91,5.527 1.117,5.786 c 0.208,0.261 0.375,0.564 0.498,0.9 0.123,0.338 0.186,0.739 0.186,1.191 0,0.519 -0.106,0.996 -0.314,1.419 -0.208,0.424 -0.511,0.787 -0.9,1.079 -0.386,0.29 -0.854,0.518 -1.393,0.679 -0.536,0.16 -1.143,0.241 -1.804,0.241 H -8.34 V -2.151 h 5.976 c 0.723,0 1.393,0.084 1.991,0.249 0.601,0.167 1.124,0.411 1.554,0.726 0.433,0.318 0.772,0.716 1.005,1.183 0.233,0.467 0.351,0.999 0.351,1.58 0,0.467 -0.079,0.889 -0.235,1.253 C 2.146,3.204 1.935,3.521 1.675,3.782"
             style="fill:#035b9e;fill-opacity:1;fill-rule:nonzero;stroke:none"
             id="path170" /></g><path
           d="m 630.593,314.018 h 1.717 v 13.446 h -1.717 z"
           style="fill:#035b9e;fill-opacity:1;fill-rule:nonzero;stroke:none"
           id="path172" /><g
           id="g174"
           transform="translate(637.6198,320.006)"><path
             d="M 0,0 H 7.215 V 1.585 H 0 V 5.874 H 8.065 V 7.459 H -1.717 V -5.987 H 8.16 v 1.584 H 0 Z"
             style="fill:#035b9e;fill-opacity:1;fill-rule:nonzero;stroke:none"
             id="path176" /></g><g
           id="g178"
           transform="translate(653.9218,320.7032)"><path
             d="m 0,0 h -3.959 v 5.158 h 3.978 c 1.042,0 1.86,-0.225 2.43,-0.668 C 3.019,4.047 3.296,3.44 3.296,2.636 3.296,2.226 3.214,1.854 3.052,1.53 2.89,1.206 2.662,0.929 2.374,0.706 2.083,0.482 1.731,0.306 1.33,0.185 0.926,0.062 0.479,0 0,0 m 2.796,-0.822 c 0.45,0.219 0.845,0.497 1.173,0.825 0.33,0.33 0.589,0.723 0.771,1.171 C 4.921,1.62 5.013,2.133 5.013,2.7 5.013,3.305 4.895,3.865 4.662,4.363 4.429,4.861 4.095,5.294 3.669,5.649 3.245,6.003 2.727,6.28 2.13,6.473 1.536,6.665 0.86,6.762 0.122,6.762 H -5.676 V -6.685 h 1.717 v 5.138 h 3.609 l 3.834,-5.138 h 2.114 l -4.087,5.434 c 0.457,0.092 0.889,0.236 1.285,0.429"
             style="fill:#035b9e;fill-opacity:1;fill-rule:nonzero;stroke:none"
             id="path180" /></g><g
           id="g182"
           transform="translate(671.5755,317.0815)"><path
             d="M 0,0 -8.162,10.383 H -9.727 V -3.063 h 1.68 V 7.566 L 0.322,-3.063 H 1.68 V 10.383 H 0 Z"
             style="fill:#035b9e;fill-opacity:1;fill-rule:nonzero;stroke:none"
             id="path184" /></g><g
           id="g186"
           transform="translate(687.683,318.639)"><path
             d="m 0,0 c -0.252,-0.645 -0.603,-1.214 -1.045,-1.693 -0.441,-0.477 -0.978,-0.859 -1.597,-1.135 -0.618,-0.276 -1.305,-0.415 -2.041,-0.415 -0.736,0 -1.423,0.143 -2.04,0.424 -0.62,0.282 -1.164,0.668 -1.618,1.146 -0.454,0.479 -0.812,1.051 -1.063,1.701 -0.252,0.65 -0.379,1.355 -0.379,2.094 0,0.738 0.127,1.439 0.379,2.084 0.251,0.644 0.603,1.214 1.045,1.692 0.441,0.478 0.978,0.86 1.597,1.136 0.618,0.275 1.305,0.415 2.041,0.415 0.736,0 1.422,-0.143 2.041,-0.424 C -2.061,6.742 -1.516,6.356 -1.062,5.878 -0.609,5.4 -0.252,4.828 0,4.177 0.252,3.525 0.38,2.821 0.38,2.084 0.38,1.347 0.252,0.645 0,0 m 0.271,6.987 c -0.599,0.631 -1.325,1.138 -2.16,1.508 -0.836,0.37 -1.776,0.557 -2.794,0.557 -1.018,0 -1.961,-0.19 -2.803,-0.567 -0.841,-0.375 -1.572,-0.889 -2.171,-1.527 -0.599,-0.636 -1.07,-1.383 -1.401,-2.217 -0.332,-0.834 -0.5,-1.728 -0.5,-2.657 0,-0.928 0.165,-1.822 0.49,-2.657 0.325,-0.835 0.794,-1.578 1.392,-2.209 0.6,-0.631 1.327,-1.138 2.162,-1.508 0.835,-0.369 1.775,-0.557 2.793,-0.557 1.018,0 1.962,0.191 2.804,0.567 0.84,0.375 1.57,0.889 2.17,1.527 0.599,0.637 1.07,1.382 1.401,2.217 0.331,0.834 0.499,1.728 0.499,2.658 0,0.929 -0.164,1.823 -0.489,2.656 C 1.339,5.613 0.87,6.356 0.271,6.987"
             style="fill:#035b9e;fill-opacity:1;fill-rule:nonzero;stroke:none"
             id="path188" /></g><g
           id="g190"
           transform="translate(708.1198,318.7069)"><path
             d="M 0,0 C -0.251,-0.613 -0.612,-1.156 -1.071,-1.616 -1.53,-2.075 -2.098,-2.438 -2.76,-2.695 -3.424,-2.954 -4.173,-3.085 -4.986,-3.085 H -7.971 V 7.154 h 2.985 c 0.813,0 1.561,-0.134 2.225,-0.398 C -2.098,6.492 -1.53,6.125 -1.071,5.667 -0.612,5.208 -0.252,4.658 0,4.033 0.251,3.406 0.379,2.728 0.379,2.016 0.379,1.292 0.251,0.613 0,0 m 0.163,6.838 c -0.631,0.6 -1.394,1.074 -2.266,1.412 -0.872,0.337 -1.842,0.508 -2.883,0.508 H -9.688 V -4.688 h 4.702 c 1.041,0 2.012,0.174 2.884,0.518 0.872,0.343 1.634,0.822 2.265,1.42 0.631,0.6 1.127,1.322 1.471,2.145 0.344,0.822 0.519,1.716 0.519,2.659 0,0.942 -0.175,1.834 -0.519,2.65 C 1.289,5.52 0.794,6.238 0.163,6.838"
             style="fill:#035b9e;fill-opacity:1;fill-rule:nonzero;stroke:none"
             id="path192" /></g><g
           id="g194"
           transform="translate(714.8206,315.6033)"><path
             d="M 0,0 V 4.403 H 7.215 V 5.988 H 0 v 4.289 h 8.065 v 1.585 H -1.717 V -1.585 H 8.159 V 0 Z"
             style="fill:#035b9e;fill-opacity:1;fill-rule:nonzero;stroke:none"
             id="path196" /></g><g
           id="g198"
           transform="translate(595.3239,303.3628)"><path
             d="M 0,0 V -14.761 H -4.074 V 0 H -9.709 V 3.756 H 5.635 V 0 Z"
             style="fill:#035b9e;fill-opacity:1;fill-rule:nonzero;stroke:none"
             id="path200" /></g><g
           id="g202"
           transform="translate(611.5758,288.3105)"><path
             d="m 0,0 c -4.974,0 -8.015,2.778 -8.015,8.227 v 10.582 h 4.073 V 8.333 c 0,-3.016 1.508,-4.577 3.995,-4.577 2.487,0 3.995,1.508 3.995,4.445 V 18.809 H 8.121 V 8.359 C 8.121,2.751 4.974,0 0,0"
             style="fill:#035b9e;fill-opacity:1;fill-rule:nonzero;stroke:none"
             id="path204" /></g><g
           id="g206"
           transform="translate(632.4684,288.284)"><path
             d="m 0,0 c -5.449,0 -9.497,4.206 -9.497,9.523 v 0.053 c 0,5.265 3.968,9.577 9.656,9.577 3.492,0 5.582,-1.164 7.301,-2.857 l -2.592,-2.99 c -1.429,1.297 -2.884,2.09 -4.735,2.09 -3.122,0 -5.371,-2.592 -5.371,-5.767 V 9.576 c 0,-3.174 2.196,-5.82 5.371,-5.82 2.116,0 3.412,0.847 4.867,2.17 L 7.593,3.307 C 5.688,1.27 3.572,0 0,0"
             style="fill:#035b9e;fill-opacity:1;fill-rule:nonzero;stroke:none"
             id="path208" /></g><g
           id="g210"
           transform="translate(650.6732,288.3105)"><path
             d="m 0,0 c -4.974,0 -8.015,2.778 -8.015,8.227 v 10.582 h 4.073 V 8.333 c 0,-3.016 1.508,-4.577 3.995,-4.577 2.487,0 3.995,1.508 3.995,4.445 V 18.809 H 8.121 V 8.359 C 8.121,2.751 4.974,0 0,0"
             style="fill:#035b9e;fill-opacity:1;fill-rule:nonzero;stroke:none"
             id="path212" /></g><g
           id="g214"
           transform="translate(677.5919,288.6015)"><path
             d="M 0,0 V 12.089 L -5.211,4.18 h -0.106 l -5.159,7.83 V 0 h -3.994 v 18.518 h 4.391 l 4.868,-7.831 4.867,7.831 H 4.048 V 0 Z"
             style="fill:#035b9e;fill-opacity:1;fill-rule:nonzero;stroke:none"
             id="path216" /></g><g
           id="g218"
           transform="translate(692.3897,308.5742)"><path
             d="M 0,0 2.989,4.682 6.455,3.174 3.068,0 Z m 1.64,-6.217 -2.46,-6.005 H 4.1 Z m 5.608,-13.756 -1.693,4.154 h -7.83 l -1.693,-4.154 h -4.153 l 7.936,18.65 h 3.756 l 7.937,-18.65 z"
             style="fill:#035b9e;fill-opacity:1;fill-rule:nonzero;stroke:none"
             id="path220" /></g><g
           id="g222"
           transform="translate(719.5146,288.6015)"><path
             d="M 0,0 -8.968,11.772 V 0 h -4.021 v 18.518 h 3.757 L -0.555,7.116 V 18.518 H 3.466 V 0 Z"
             style="fill:#035b9e;fill-opacity:1;fill-rule:nonzero;stroke:none"
             id="path224" /></g><path
           d="m 473.228,252.755 h -1 v 107.9 h 1 z"
           style="fill:#095da2;fill-opacity:1;fill-rule:nonzero;stroke:none"
           id="path226" /><g
           id="g228"
           transform="matrix(1.0748438,0,0,1.2265421,119.41303,276.58194)"><path
             d="m 0,0 v -9.417 h 2.788 c 3.009,0 4.929,2.022 4.929,4.675 v 0.033 C 7.717,-2.074 5.797,0 2.788,0 Z m -1.343,1.241 h 4.131 c 3.739,0 6.323,-2.567 6.323,-5.916 v -0.034 c 0,-3.349 -2.584,-5.949 -6.323,-5.949 h -4.131 z"
             style="fill:#035b9e;fill-opacity:1;fill-rule:nonzero;stroke:none"
             id="path230" /></g><path
           d="m 131.69247,274.28818 h 1.40697 v -10.77885 h -1.40697 z m -0.0924,4.12854 h 1.60797 v -1.77235 h -1.60797 z"
           style="fill:#035b9e;fill-opacity:1;fill-rule:nonzero;stroke:none;stroke-width:1.14819"
           id="path232" /><g
           id="g234"
           transform="matrix(1.0748438,0,0,1.2265421,135.91252,274.28818)"><path
             d="m 0,0 h 1.309 v -2.295 c 0.646,1.462 1.92,2.499 3.587,2.448 V -1.258 H 4.794 c -1.921,0 -3.485,-1.377 -3.485,-4.028 V -8.788 H 0 Z"
             style="fill:#035b9e;fill-opacity:1;fill-rule:nonzero;stroke:none"
             id="path236" /></g><g
           id="g238"
           transform="matrix(1.0748438,0,0,1.2265421,149.78048,269.49338)"><path
             d="M 0,0 C -0.136,1.581 -1.037,2.991 -2.805,2.991 -4.352,2.991 -5.474,1.699 -5.66,0 Z m -6.986,-0.51 v 0.033 c 0,2.534 1.767,4.574 4.215,4.574 2.601,0 4.097,-2.075 4.097,-4.641 0,-0.187 0,-0.272 -0.017,-0.425 H -5.66 c 0.186,-1.904 1.529,-2.974 3.094,-2.974 1.223,0 2.04,0.492 2.77,1.24 l 0.817,-0.731 c -0.885,-1.003 -1.939,-1.649 -3.622,-1.649 -2.396,0 -4.385,1.854 -4.385,4.573"
             style="fill:#035b9e;fill-opacity:1;fill-rule:nonzero;stroke:none"
             id="path240" /></g><g
           id="g242"
           transform="matrix(1.0748438,0,0,1.2265421,152.6314,268.84663)"><path
             d="m 0,0 v 0.034 c 0,2.499 1.921,4.59 4.505,4.59 1.666,0 2.685,-0.681 3.518,-1.564 L 7.156,2.142 C 6.46,2.873 5.694,3.468 4.487,3.468 2.703,3.468 1.343,1.972 1.343,0.068 V 0.034 c 0,-1.903 1.394,-3.417 3.229,-3.417 1.14,0 1.99,0.562 2.687,1.31 L 8.092,-2.855 C 7.207,-3.858 6.153,-4.556 4.505,-4.556 1.921,-4.556 0,-2.465 0,0"
             style="fill:#035b9e;fill-opacity:1;fill-rule:nonzero;stroke:none"
             id="path244" /></g><g
           id="g246"
           transform="matrix(1.0748438,0,0,1.2265421,162.60831,268.84663)"><path
             d="m 0,0 v 0.034 c 0,2.499 1.921,4.59 4.505,4.59 1.666,0 2.685,-0.681 3.518,-1.564 L 7.156,2.142 C 6.46,2.873 5.694,3.468 4.487,3.468 2.703,3.468 1.343,1.972 1.343,0.068 V 0.034 c 0,-1.903 1.394,-3.417 3.229,-3.417 1.14,0 1.99,0.562 2.687,1.31 L 8.092,-2.855 C 7.207,-3.858 6.153,-4.556 4.505,-4.556 1.921,-4.556 0,-2.465 0,0"
             style="fill:#035b9e;fill-opacity:1;fill-rule:nonzero;stroke:none"
             id="path248" /></g><path
           d="m 173.29752,274.28818 h 1.40697 v -10.77885 h -1.40697 z m -0.0914,4.12854 h 1.60797 v -1.77235 h -1.60797 z"
           style="fill:#035b9e;fill-opacity:1;fill-rule:nonzero;stroke:none;stroke-width:1.14819"
           id="path250" /><g
           id="g252"
           transform="matrix(1.0748438,0,0,1.2265421,182.99992,278.938)"><path
             d="m 0,0 1.359,-0.629 -1.937,-1.836 h -1.021 z m 2.176,-8.228 v 0.035 c 0,1.886 -1.411,3.433 -3.264,3.433 -1.904,0 -3.213,-1.547 -3.213,-3.399 v -0.034 c 0,-1.887 1.394,-3.417 3.246,-3.417 1.905,0 3.231,1.547 3.231,3.382 m -7.82,0 v 0.035 c 0,2.499 1.921,4.589 4.589,4.589 2.653,0 4.574,-2.074 4.574,-4.555 v -0.034 c 0,-2.499 -1.956,-4.59 -4.607,-4.59 -2.635,0 -4.556,2.074 -4.556,4.555"
             style="fill:#035b9e;fill-opacity:1;fill-rule:nonzero;stroke:none"
             id="path254" /></g><g
           id="g256"
           transform="matrix(1.0748438,0,0,1.2265421,188.86535,274.28818)"><path
             d="m 0,0 h 1.309 v -1.529 c 0.595,0.951 1.496,1.716 3.008,1.716 2.109,0 3.367,-1.427 3.367,-3.518 V -8.788 H 6.375 v 5.134 c 0,1.632 -0.867,2.651 -2.432,2.651 -1.512,0 -2.634,-1.104 -2.634,-2.754 V -8.788 H 0 Z"
             style="fill:#035b9e;fill-opacity:1;fill-rule:nonzero;stroke:none"
             id="path258" /></g><g
           id="g260"
           transform="matrix(1.0748438,0,0,1.2265421,212.32607,268.88845)"><path
             d="m 0,0 v 0.034 c 0,2.023 -1.547,3.383 -3.179,3.383 -1.7,0 -3.093,-1.258 -3.093,-3.383 V 0 c 0,-2.091 1.411,-3.399 3.093,-3.399 C -1.547,-3.399 0,-2.022 0,0 m -7.615,-0.017 v 0.034 c 0,2.856 2.091,4.573 4.198,4.573 1.632,0 2.687,-0.867 3.366,-1.87 V 8.023 H 1.258 V -4.386 h -1.309 v 1.768 c -0.731,-1.054 -1.734,-1.954 -3.366,-1.954 -2.107,0 -4.198,1.666 -4.198,4.555"
             style="fill:#035b9e;fill-opacity:1;fill-rule:nonzero;stroke:none"
             id="path262" /></g><g
           id="g264"
           transform="matrix(1.0748438,0,0,1.2265421,223.28969,269.49338)"><path
             d="M 0,0 C -0.137,1.581 -1.037,2.991 -2.805,2.991 -4.352,2.991 -5.474,1.699 -5.661,0 Z m -6.986,-0.51 v 0.033 c 0,2.534 1.767,4.574 4.215,4.574 2.601,0 4.096,-2.075 4.096,-4.641 0,-0.187 0,-0.272 -0.016,-0.425 h -6.97 c 0.187,-1.904 1.53,-2.974 3.094,-2.974 1.224,0 2.04,0.492 2.771,1.24 L 1.02,-3.434 c -0.884,-1.003 -1.938,-1.649 -3.622,-1.649 -2.396,0 -4.384,1.854 -4.384,4.573"
             style="fill:#035b9e;fill-opacity:1;fill-rule:nonzero;stroke:none"
             id="path266" /></g><g
           id="g268"
           transform="matrix(1.0748438,0,0,1.2265421,231.98711,278.10432)"><path
             d="M 0,0 H 8.602 V -1.225 H 1.343 V -5.287 H 7.836 V -6.511 H 1.343 v -4.165 h 7.344 v -1.223 H 0 Z"
             style="fill:#035b9e;fill-opacity:1;fill-rule:nonzero;stroke:none"
             id="path270" /></g><g
           id="g272"
           transform="matrix(1.0748438,0,0,1.2265421,242.7492,264.88551)"><path
             d="m 0,0 0.663,0.935 c 0.952,-0.731 2.006,-1.122 3.043,-1.122 1.07,0 1.818,0.527 1.818,1.394 v 0.034 c 0,0.866 -1.037,1.224 -2.192,1.547 -1.36,0.407 -2.907,0.85 -2.907,2.482 v 0.034 c 0,1.512 1.258,2.515 2.992,2.515 1.088,0 2.261,-0.374 3.161,-0.968 L 5.983,5.864 c -0.815,0.528 -1.733,0.851 -2.6,0.851 -1.037,0 -1.7,-0.544 -1.7,-1.276 V 5.405 C 1.683,4.572 2.771,4.25 3.943,3.893 5.304,3.484 6.766,2.958 6.766,1.377 V 1.343 C 6.766,-0.323 5.389,-1.292 3.638,-1.292 2.363,-1.292 1.003,-0.799 0,0"
             style="fill:#035b9e;fill-opacity:1;fill-rule:nonzero;stroke:none"
             id="path274" /></g><g
           id="g276"
           transform="matrix(1.0748438,0,0,1.2265421,252.67162,266.36594)"><path
             d="M 0,0 V 5.304 H -1.225 V 6.459 H 0 V 9.111 H 1.309 V 6.459 H 4.097 V 5.304 H 1.309 V 0.17 c 0,-1.088 0.594,-1.462 1.478,-1.462 0.459,0 0.817,0.085 1.275,0.306 V -2.107 C 3.604,-2.363 3.11,-2.481 2.481,-2.481 1.054,-2.481 0,-1.785 0,0"
             style="fill:#035b9e;fill-opacity:1;fill-rule:nonzero;stroke:none"
             id="path278" /></g><g
           id="g280"
           transform="matrix(1.0748438,0,0,1.2265421,265.35144,267.47032)"><path
             d="m 0,0 v 0.851 c -0.663,0.186 -1.496,0.374 -2.584,0.374 -1.648,0 -2.566,-0.714 -2.566,-1.82 v -0.034 c 0,-1.104 1.037,-1.75 2.21,-1.75 C -1.309,-2.379 0,-1.394 0,0 m -6.477,-0.68 v 0.034 c 0,1.836 1.531,2.839 3.757,2.839 1.139,0 1.905,-0.153 2.703,-0.374 v 0.306 c 0,1.581 -0.968,2.396 -2.618,2.396 -1.037,0 -1.852,-0.254 -2.669,-0.645 l -0.39,1.071 c 0.968,0.459 1.904,0.731 3.195,0.731 1.241,0 2.193,-0.324 2.839,-0.969 C 0.935,4.114 1.241,3.247 1.241,2.143 v -5.372 h -1.258 v 1.326 c -0.612,-0.799 -1.615,-1.513 -3.178,-1.513 -1.632,0 -3.282,0.918 -3.282,2.736"
             style="fill:#035b9e;fill-opacity:1;fill-rule:nonzero;stroke:none"
             id="path282" /></g><g
           id="g284"
           transform="matrix(1.0748438,0,0,1.2265421,276.86184,268.88845)"><path
             d="m 0,0 v 0.034 c 0,2.023 -1.546,3.383 -3.178,3.383 -1.7,0 -3.093,-1.258 -3.093,-3.383 V 0 c 0,-2.091 1.41,-3.399 3.093,-3.399 C -1.546,-3.399 0,-2.022 0,0 m -7.615,-0.017 v 0.034 c 0,2.856 2.091,4.573 4.199,4.573 1.632,0 2.686,-0.867 3.365,-1.87 v 5.303 h 1.31 V -4.386 h -1.31 v 1.768 c -0.73,-1.054 -1.733,-1.954 -3.365,-1.954 -2.108,0 -4.199,1.666 -4.199,4.555"
             style="fill:#035b9e;fill-opacity:1;fill-rule:nonzero;stroke:none"
             id="path286" /></g><g
           id="g288"
           transform="matrix(1.0748438,0,0,1.2265421,282.91106,278.938)"><path
             d="m 0,0 1.359,-0.629 -1.937,-1.836 h -1.02 z m -1.751,-3.791 h 1.309 v -8.788 h -1.309 z"
             style="fill:#035b9e;fill-opacity:1;fill-rule:nonzero;stroke:none"
             id="path290" /></g><g
           id="g292"
           transform="matrix(1.0748438,0,0,1.2265421,284.46345,264.88551)"><path
             d="m 0,0 0.663,0.935 c 0.952,-0.731 2.006,-1.122 3.043,-1.122 1.07,0 1.818,0.527 1.818,1.394 v 0.034 c 0,0.866 -1.037,1.224 -2.192,1.547 -1.36,0.407 -2.907,0.85 -2.907,2.482 v 0.034 c 0,1.512 1.258,2.515 2.992,2.515 1.088,0 2.261,-0.374 3.161,-0.968 L 5.983,5.864 c -0.815,0.528 -1.733,0.851 -2.6,0.851 -1.037,0 -1.7,-0.544 -1.7,-1.276 V 5.405 C 1.683,4.572 2.771,4.25 3.943,3.893 5.304,3.484 6.766,2.958 6.766,1.377 V 1.343 C 6.766,-0.323 5.389,-1.292 3.638,-1.292 2.363,-1.292 1.003,-0.799 0,0"
             style="fill:#035b9e;fill-opacity:1;fill-rule:nonzero;stroke:none"
             id="path294" /></g><g
           id="g296"
           transform="matrix(1.0748438,0,0,1.2265421,294.38577,266.36594)"><path
             d="M 0,0 V 5.304 H -1.225 V 6.459 H 0 V 9.111 H 1.309 V 6.459 H 4.097 V 5.304 H 1.309 V 0.17 c 0,-1.088 0.594,-1.462 1.478,-1.462 0.459,0 0.817,0.085 1.275,0.306 V -2.107 C 3.604,-2.363 3.11,-2.481 2.481,-2.481 1.054,-2.481 0,-1.785 0,0"
             style="fill:#035b9e;fill-opacity:1;fill-rule:nonzero;stroke:none"
             id="path298" /></g><path
           d="m 300.94489,274.28818 h 1.40697 v -10.77885 h -1.40697 z m -0.0914,4.12854 h 1.60797 v -1.77235 h -1.60797 z"
           style="fill:#035b9e;fill-opacity:1;fill-rule:nonzero;stroke:none;stroke-width:1.14819"
           id="path300" /><g
           id="g302"
           transform="matrix(1.0748438,0,0,1.2265421,304.58109,268.84663)"><path
             d="m 0,0 v 0.034 c 0,2.499 1.921,4.59 4.504,4.59 1.666,0 2.686,-0.681 3.518,-1.564 L 7.156,2.142 C 6.459,2.873 5.694,3.468 4.487,3.468 2.702,3.468 1.343,1.972 1.343,0.068 V 0.034 c 0,-1.903 1.393,-3.417 3.229,-3.417 1.139,0 1.989,0.562 2.686,1.31 L 8.091,-2.855 C 7.207,-3.858 6.153,-4.556 4.504,-4.556 1.921,-4.556 0,-2.465 0,0"
             style="fill:#035b9e;fill-opacity:1;fill-rule:nonzero;stroke:none"
             id="path304" /></g><g
           id="g306"
           transform="matrix(1.0748438,0,0,1.2265421,321.39122,267.47032)"><path
             d="m 0,0 v 0.851 c -0.663,0.186 -1.496,0.374 -2.584,0.374 -1.649,0 -2.566,-0.714 -2.566,-1.82 v -0.034 c 0,-1.104 1.036,-1.75 2.209,-1.75 C -1.31,-2.379 0,-1.394 0,0 m -6.477,-0.68 v 0.034 c 0,1.836 1.53,2.839 3.757,2.839 1.139,0 1.904,-0.153 2.702,-0.374 v 0.306 c 0,1.581 -0.968,2.396 -2.617,2.396 -1.037,0 -1.853,-0.254 -2.669,-0.645 l -0.39,1.071 c 0.968,0.459 1.903,0.731 3.195,0.731 1.241,0 2.192,-0.324 2.839,-0.969 0.595,-0.595 0.9,-1.462 0.9,-2.566 v -5.372 h -1.258 v 1.326 c -0.611,-0.799 -1.614,-1.513 -3.178,-1.513 -1.632,0 -3.281,0.918 -3.281,2.736"
             style="fill:#035b9e;fill-opacity:1;fill-rule:nonzero;stroke:none"
             id="path308" /></g><g
           id="g310"
           transform="matrix(1.0748438,0,0,1.2265421,337.9264,268.88845)"><path
             d="m 0,0 v 0.034 c 0,2.023 -1.547,3.383 -3.179,3.383 -1.7,0 -3.093,-1.258 -3.093,-3.383 V 0 c 0,-2.091 1.411,-3.399 3.093,-3.399 C -1.547,-3.399 0,-2.022 0,0 m -7.615,-0.017 v 0.034 c 0,2.856 2.091,4.573 4.198,4.573 1.632,0 2.687,-0.867 3.366,-1.87 V 8.023 H 1.258 V -4.386 h -1.309 v 1.768 c -0.731,-1.054 -1.734,-1.954 -3.366,-1.954 -2.107,0 -4.198,1.666 -4.198,4.555"
             style="fill:#035b9e;fill-opacity:1;fill-rule:nonzero;stroke:none"
             id="path312" /></g><g
           id="g314"
           transform="matrix(1.0748438,0,0,1.2265421,348.89002,269.49338)"><path
             d="M 0,0 C -0.137,1.581 -1.037,2.991 -2.805,2.991 -4.352,2.991 -5.474,1.699 -5.661,0 Z m -6.986,-0.51 v 0.033 c 0,2.534 1.767,4.574 4.215,4.574 2.601,0 4.096,-2.075 4.096,-4.641 0,-0.187 0,-0.272 -0.016,-0.425 h -6.97 c 0.187,-1.904 1.53,-2.974 3.094,-2.974 1.224,0 2.04,0.492 2.771,1.24 L 1.02,-3.434 c -0.884,-1.003 -1.938,-1.649 -3.622,-1.649 -2.396,0 -4.384,1.854 -4.384,4.573"
             style="fill:#035b9e;fill-opacity:1;fill-rule:nonzero;stroke:none"
             id="path316" /></g><path
           d="m 357.47845,278.72949 h 1.40697 v -15.22016 h -1.40697 z"
           style="fill:#035b9e;fill-opacity:1;fill-rule:nonzero;stroke:none;stroke-width:1.14819"
           id="path318" /><g
           id="g320"
           transform="matrix(1.0748438,0,0,1.2265421,367.94646,267.47032)"><path
             d="m 0,0 v 0.851 c -0.663,0.186 -1.496,0.374 -2.584,0.374 -1.648,0 -2.566,-0.714 -2.566,-1.82 v -0.034 c 0,-1.104 1.037,-1.75 2.21,-1.75 C -1.309,-2.379 0,-1.394 0,0 m -6.477,-0.68 v 0.034 c 0,1.836 1.531,2.839 3.757,2.839 1.139,0 1.905,-0.153 2.703,-0.374 v 0.306 c 0,1.581 -0.968,2.396 -2.618,2.396 -1.037,0 -1.852,-0.254 -2.669,-0.645 l -0.39,1.071 c 0.968,0.459 1.904,0.731 3.195,0.731 1.241,0 2.193,-0.324 2.839,-0.969 C 0.935,4.114 1.241,3.247 1.241,2.143 v -5.372 h -1.258 v 1.326 c -0.612,-0.799 -1.615,-1.513 -3.178,-1.513 -1.632,0 -3.282,0.918 -3.282,2.736"
             style="fill:#035b9e;fill-opacity:1;fill-rule:nonzero;stroke:none"
             id="path322" /></g><g
           id="g324"
           transform="matrix(1.0748438,0,0,1.2265421,381.68748,270.1605)"><path
             d="m 0,0 c 1.972,0 3.264,1.054 3.264,2.617 v 0.034 c 0,1.701 -1.276,2.584 -3.197,2.584 H -2.94 V 0 Z M -4.284,6.477 H 0.17 c 2.685,0 4.453,-1.429 4.453,-3.775 V 2.669 c 0,-2.567 -2.142,-3.893 -4.674,-3.893 H -2.94 v -4.199 h -1.344 z"
             style="fill:#035b9e;fill-opacity:1;fill-rule:nonzero;stroke:none"
             id="path326" /></g><g
           id="g328"
           transform="matrix(1.0748438,0,0,1.2265421,388.59421,274.28818)"><path
             d="m 0,0 h 1.309 v -2.295 c 0.646,1.462 1.92,2.499 3.587,2.448 V -1.258 H 4.794 c -1.921,0 -3.485,-1.377 -3.485,-4.028 V -8.788 H 0 Z"
             style="fill:#035b9e;fill-opacity:1;fill-rule:nonzero;stroke:none"
             id="path330" /></g><g
           id="g332"
           transform="matrix(1.0748438,0,0,1.2265421,403.35751,268.84663)"><path
             d="m 0,0 v 0.034 c 0,1.887 -1.411,3.434 -3.264,3.434 -1.903,0 -3.213,-1.547 -3.213,-3.4 V 0.034 c 0,-1.887 1.395,-3.417 3.248,-3.417 C -1.326,-3.383 0,-1.836 0,0 m -7.819,0 v 0.034 c 0,2.499 1.921,4.59 4.59,4.59 2.651,0 4.572,-2.074 4.572,-4.556 V 0.034 c 0,-2.499 -1.955,-4.59 -4.607,-4.59 -2.634,0 -4.555,2.075 -4.555,4.556"
             style="fill:#035b9e;fill-opacity:1;fill-rule:nonzero;stroke:none"
             id="path334" /></g><g
           id="g336"
           transform="matrix(1.0748438,0,0,1.2265421,405.95229,274.28818)"><path
             d="M 0,0 H 1.445 L 4.403,-7.292 7.378,0 h 1.41 L 4.964,-8.855 H 3.808 Z"
             style="fill:#035b9e;fill-opacity:1;fill-rule:nonzero;stroke:none"
             id="path338" /></g><path
           d="m 417.28276,274.28818 h 1.40697 v -10.77885 h -1.40697 z m -0.0924,4.12854 h 1.60797 v -1.77235 h -1.60797 z"
           style="fill:#035b9e;fill-opacity:1;fill-rule:nonzero;stroke:none;stroke-width:1.14819"
           id="path340" /><g
           id="g342"
           transform="matrix(1.0748438,0,0,1.2265421,421.50292,274.28818)"><path
             d="m 0,0 h 1.309 v -1.529 c 0.594,0.951 1.496,1.716 3.008,1.716 2.108,0 3.366,-1.427 3.366,-3.518 V -8.788 H 6.374 v 5.134 c 0,1.632 -0.867,2.651 -2.431,2.651 -1.512,0 -2.634,-1.104 -2.634,-2.754 V -8.788 H 0 Z"
             style="fill:#035b9e;fill-opacity:1;fill-rule:nonzero;stroke:none"
             id="path344" /></g><g
           id="g346"
           transform="matrix(1.0748438,0,0,1.2265421,431.71705,268.84663)"><path
             d="m 0,0 v 0.034 c 0,2.499 1.921,4.59 4.504,4.59 1.666,0 2.686,-0.681 3.518,-1.564 L 7.156,2.142 C 6.459,2.873 5.694,3.468 4.487,3.468 2.702,3.468 1.343,1.972 1.343,0.068 V 0.034 c 0,-1.903 1.393,-3.417 3.229,-3.417 1.139,0 1.989,0.562 2.686,1.31 L 8.091,-2.855 C 7.207,-3.858 6.153,-4.556 4.504,-4.556 1.921,-4.556 0,-2.465 0,0"
             style="fill:#035b9e;fill-opacity:1;fill-rule:nonzero;stroke:none"
             id="path348" /></g><path
           d="m 442.40723,274.28818 h 1.40697 v -10.77885 h -1.40697 z m -0.0924,4.12854 h 1.60797 v -1.77235 h -1.60797 z"
           style="fill:#035b9e;fill-opacity:1;fill-rule:nonzero;stroke:none;stroke-width:1.14819"
           id="path350" /><g
           id="g352"
           transform="matrix(1.0748438,0,0,1.2265421,452.87492,267.47032)"><path
             d="m 0,0 v 0.851 c -0.663,0.186 -1.496,0.374 -2.584,0.374 -1.648,0 -2.566,-0.714 -2.566,-1.82 v -0.034 c 0,-1.104 1.037,-1.75 2.21,-1.75 C -1.309,-2.379 0,-1.394 0,0 m -6.477,-0.68 v 0.034 c 0,1.836 1.531,2.839 3.757,2.839 1.139,0 1.905,-0.153 2.703,-0.374 v 0.306 c 0,1.581 -0.968,2.396 -2.618,2.396 -1.037,0 -1.852,-0.254 -2.669,-0.645 l -0.39,1.071 c 0.968,0.459 1.904,0.731 3.195,0.731 1.241,0 2.193,-0.324 2.839,-0.969 C 0.935,4.114 1.241,3.247 1.241,2.143 v -5.372 h -1.258 v 1.326 c -0.612,-0.799 -1.615,-1.513 -3.178,-1.513 -1.632,0 -3.282,0.918 -3.282,2.736"
             style="fill:#035b9e;fill-opacity:1;fill-rule:nonzero;stroke:none"
             id="path354" /></g><path
           d="M 454.212,293.395 H 70.345 v 1.043 h 383.867 z"
           style="fill:#095da2;fill-opacity:1;fill-rule:nonzero;stroke:none"
           id="path356" /><g
           id="g358"
           transform="translate(240.5298,340.0034)"><path
             d="m 0,0 0.923,1.092 c 1.374,-1.261 2.692,-1.864 4.518,-1.864 1.789,0 2.938,0.941 2.938,2.241 V 1.506 C 8.379,2.73 7.72,3.408 4.952,4.011 1.921,4.67 0.527,5.649 0.527,7.814 v 0.038 c 0,2.052 1.827,3.596 4.33,3.596 1.94,0 3.277,-0.546 4.633,-1.619 L 8.624,8.681 C 7.399,9.679 6.176,10.111 4.82,10.111 3.088,10.111 2.015,9.189 2.015,7.984 V 7.946 C 2.015,6.704 2.674,5.988 5.592,5.385 8.529,4.727 9.886,3.672 9.886,1.657 V 1.62 C 9.886,-0.64 8.002,-2.109 5.385,-2.109 3.276,-2.109 1.582,-1.431 0,0"
             style="fill:#035b9e;fill-opacity:1;fill-rule:nonzero;stroke:none"
             id="path360" /></g><g
           id="g362"
           transform="translate(259.8657,343.4868)"><path
             d="M 0,0 C -0.15,1.751 -1.148,3.314 -3.107,3.314 -4.82,3.314 -6.063,1.883 -6.271,0 Z m -7.739,-0.564 v 0.037 c 0,2.805 1.958,5.065 4.67,5.065 2.881,0 4.538,-2.297 4.538,-5.141 0,-0.207 0,-0.301 -0.02,-0.47 h -7.72 c 0.208,-2.109 1.695,-3.295 3.427,-3.295 1.357,0 2.26,0.546 3.07,1.374 L 1.13,-3.803 C 0.15,-4.914 -1.017,-5.63 -2.881,-5.63 c -2.655,0 -4.858,2.053 -4.858,5.066"
             style="fill:#035b9e;fill-opacity:1;fill-rule:nonzero;stroke:none"
             id="path364" /></g><g
           id="g366"
           transform="translate(262.8003,342.9033)"><path
             d="m 0,0 v 0.038 c 0,2.768 2.128,5.084 4.99,5.084 1.845,0 2.975,-0.753 3.898,-1.733 L 7.928,2.373 C 7.155,3.182 6.308,3.841 4.971,3.841 2.994,3.841 1.487,2.184 1.487,0.075 V 0.038 c 0,-2.109 1.544,-3.785 3.578,-3.785 1.262,0 2.204,0.622 2.975,1.45 L 8.963,-3.164 C 7.983,-4.274 6.816,-5.046 4.99,-5.046 2.128,-5.046 0,-2.73 0,0"
             style="fill:#035b9e;fill-opacity:1;fill-rule:nonzero;stroke:none"
             id="path368" /></g><g
           id="g370"
           transform="translate(273.6821,347.8179)"><path
             d="m 0,0 h 1.45 v -2.542 c 0.716,1.619 2.128,2.768 3.973,2.711 V -1.394 H 5.311 C 3.183,-1.394 1.45,-2.918 1.45,-5.856 V -9.735 H 0 Z"
             style="fill:#035b9e;fill-opacity:1;fill-rule:nonzero;stroke:none"
             id="path372" /></g><g
           id="g374"
           transform="translate(287.9722,343.4868)"><path
             d="M 0,0 C -0.15,1.751 -1.148,3.314 -3.107,3.314 -4.82,3.314 -6.063,1.883 -6.271,0 Z m -7.739,-0.564 v 0.037 c 0,2.805 1.958,5.065 4.67,5.065 2.881,0 4.538,-2.297 4.538,-5.141 0,-0.207 0,-0.301 -0.02,-0.47 h -7.72 c 0.208,-2.109 1.695,-3.295 3.427,-3.295 1.357,0 2.26,0.546 3.07,1.374 L 1.13,-3.803 C 0.15,-4.914 -1.017,-5.63 -2.881,-5.63 c -2.655,0 -4.858,2.053 -4.858,5.066"
             style="fill:#035b9e;fill-opacity:1;fill-rule:nonzero;stroke:none"
             id="path376" /></g><g
           id="g378"
           transform="translate(292.0181,340.6626)"><path
             d="m 0,0 v 5.875 h -1.355 v 1.28 H 0 v 2.938 H 1.449 V 7.155 H 4.538 V 5.875 H 1.449 V 0.188 c 0,-1.205 0.659,-1.619 1.639,-1.619 0.508,0 0.903,0.094 1.412,0.339 V -2.335 C 3.991,-2.617 3.445,-2.749 2.749,-2.749 1.167,-2.749 0,-1.977 0,0"
             style="fill:#035b9e;fill-opacity:1;fill-rule:nonzero;stroke:none"
             id="path380" /></g><g
           id="g382"
           transform="translate(305.0835,341.6606)"><path
             d="m 0,0 v 0.941 c -0.734,0.207 -1.656,0.414 -2.861,0.414 -1.827,0 -2.844,-0.79 -2.844,-2.014 v -0.038 c 0,-1.224 1.148,-1.939 2.448,-1.939 C -1.449,-2.636 0,-1.544 0,0 m -7.174,-0.753 v 0.037 c 0,2.034 1.695,3.145 4.161,3.145 1.262,0 2.11,-0.17 2.994,-0.414 v 0.339 c 0,1.75 -1.073,2.655 -2.899,2.655 -1.148,0 -2.053,-0.283 -2.956,-0.716 l -0.434,1.186 c 1.074,0.509 2.11,0.81 3.54,0.81 1.375,0 2.429,-0.358 3.145,-1.073 0.659,-0.659 0.998,-1.62 0.998,-2.843 v -5.951 h -1.394 v 1.469 c -0.677,-0.885 -1.789,-1.676 -3.521,-1.676 -1.807,0 -3.634,1.017 -3.634,3.032"
             style="fill:#035b9e;fill-opacity:1;fill-rule:nonzero;stroke:none"
             id="path384" /></g><g
           id="g386"
           transform="translate(309.0737,347.8179)"><path
             d="m 0,0 h 1.45 v -2.542 c 0.716,1.619 2.128,2.768 3.973,2.711 V -1.394 H 5.31 c -2.127,0 -3.86,-1.524 -3.86,-4.462 V -9.735 H 0 Z"
             style="fill:#035b9e;fill-opacity:1;fill-rule:nonzero;stroke:none"
             id="path388" /></g><g
           id="g390"
           transform="translate(318.2983,352.0166)"><path
             d="M 0,0 1.507,-0.697 -0.64,-2.73 h -1.13 z m -1.939,-4.199 h 1.45 v -9.735 h -1.45 z"
             style="fill:#035b9e;fill-opacity:1;fill-rule:nonzero;stroke:none"
             id="path392" /></g><g
           id="g394"
           transform="translate(327.147,341.6606)"><path
             d="m 0,0 v 0.941 c -0.734,0.207 -1.656,0.414 -2.861,0.414 -1.827,0 -2.844,-0.79 -2.844,-2.014 v -0.038 c 0,-1.224 1.148,-1.939 2.448,-1.939 C -1.449,-2.636 0,-1.544 0,0 m -7.174,-0.753 v 0.037 c 0,2.034 1.695,3.145 4.161,3.145 1.262,0 2.11,-0.17 2.994,-0.414 v 0.339 c 0,1.75 -1.073,2.655 -2.899,2.655 -1.148,0 -2.053,-0.283 -2.956,-0.716 l -0.434,1.186 c 1.074,0.509 2.11,0.81 3.54,0.81 1.375,0 2.429,-0.358 3.145,-1.073 0.659,-0.659 0.998,-1.62 0.998,-2.843 v -5.951 h -1.394 v 1.469 c -0.677,-0.885 -1.789,-1.676 -3.52,-1.676 -1.809,0 -3.635,1.017 -3.635,3.032"
             style="fill:#035b9e;fill-opacity:1;fill-rule:nonzero;stroke:none"
             id="path396" /></g><g
           id="g398"
           transform="translate(344.186,342.9409)"><path
             d="m 0,0 v 0.038 c 0,2.24 -1.714,3.747 -3.521,3.747 -1.883,0 -3.427,-1.393 -3.427,-3.747 V 0 c 0,-2.316 1.562,-3.766 3.427,-3.766 C -1.714,-3.766 0,-2.241 0,0 m -8.436,-0.019 v 0.038 c 0,3.163 2.316,5.065 4.651,5.065 1.807,0 2.975,-0.96 3.728,-2.071 V 8.888 H 1.394 V -4.858 h -1.451 v 1.959 c -0.809,-1.168 -1.921,-2.166 -3.728,-2.166 -2.335,0 -4.651,1.845 -4.651,5.046"
             style="fill:#035b9e;fill-opacity:1;fill-rule:nonzero;stroke:none"
             id="path400" /></g><g
           id="g402"
           transform="translate(355.481,343.4868)"><path
             d="M 0,0 C -0.15,1.751 -1.148,3.314 -3.107,3.314 -4.82,3.314 -6.063,1.883 -6.271,0 Z m -7.739,-0.564 v 0.037 c 0,2.805 1.958,5.065 4.67,5.065 2.881,0 4.538,-2.297 4.538,-5.141 0,-0.207 0,-0.301 -0.02,-0.47 h -7.72 c 0.208,-2.109 1.695,-3.295 3.427,-3.295 1.357,0 2.26,0.546 3.07,1.374 L 1.13,-3.803 C 0.15,-4.914 -1.017,-5.63 -2.881,-5.63 c -2.655,0 -4.858,2.053 -4.858,5.066"
             style="fill:#035b9e;fill-opacity:1;fill-rule:nonzero;stroke:none"
             id="path404" /></g><g
           id="g406"
           transform="translate(364.4399,351.2637)"><path
             d="m 0,0 h 9.527 v -1.356 h -8.04 v -4.5 H 8.68 V -7.212 H 1.487 v -4.613 h 8.135 v -1.356 H 0 Z"
             style="fill:#035b9e;fill-opacity:1;fill-rule:nonzero;stroke:none"
             id="path408" /></g><g
           id="g410"
           transform="translate(375.5278,339.3257)"><path
             d="m 0,0 0.734,1.036 c 1.055,-0.81 2.222,-1.243 3.37,-1.243 1.187,0 2.015,0.583 2.015,1.544 V 1.375 C 6.119,2.335 4.971,2.73 3.69,3.088 2.185,3.54 0.471,4.029 0.471,5.837 v 0.038 c 0,1.676 1.393,2.787 3.314,2.787 1.205,0 2.504,-0.415 3.502,-1.074 L 6.628,6.496 C 5.725,7.08 4.707,7.437 3.747,7.437 2.599,7.437 1.864,6.835 1.864,6.025 V 5.988 C 1.864,5.065 3.069,4.708 4.368,4.312 5.875,3.86 7.494,3.276 7.494,1.525 V 1.488 C 7.494,-0.358 5.969,-1.431 4.029,-1.431 2.617,-1.431 1.111,-0.885 0,0"
             style="fill:#035b9e;fill-opacity:1;fill-rule:nonzero;stroke:none"
             id="path412" /></g><g
           id="g414"
           transform="translate(385.7505,340.6626)"><path
             d="m 0,0 v 5.875 h -1.355 v 1.28 H 0 v 2.938 H 1.449 V 7.155 H 4.538 V 5.875 H 1.449 V 0.188 c 0,-1.205 0.659,-1.619 1.639,-1.619 0.508,0 0.903,0.094 1.412,0.339 V -2.335 C 3.991,-2.617 3.445,-2.749 2.749,-2.749 1.167,-2.749 0,-1.977 0,0"
             style="fill:#035b9e;fill-opacity:1;fill-rule:nonzero;stroke:none"
             id="path416" /></g><g
           id="g418"
           transform="translate(398.8159,341.6606)"><path
             d="m 0,0 v 0.941 c -0.734,0.207 -1.656,0.414 -2.861,0.414 -1.827,0 -2.844,-0.79 -2.844,-2.014 v -0.038 c 0,-1.224 1.148,-1.939 2.448,-1.939 C -1.449,-2.636 0,-1.544 0,0 m -7.174,-0.753 v 0.037 c 0,2.034 1.695,3.145 4.161,3.145 1.262,0 2.11,-0.17 2.994,-0.414 v 0.339 c 0,1.75 -1.073,2.655 -2.899,2.655 -1.148,0 -2.053,-0.283 -2.956,-0.716 l -0.434,1.186 c 1.074,0.509 2.11,0.81 3.54,0.81 1.375,0 2.429,-0.358 3.145,-1.073 0.659,-0.659 0.998,-1.62 0.998,-2.843 v -5.951 h -1.394 v 1.469 c -0.677,-0.885 -1.789,-1.676 -3.521,-1.676 -1.807,0 -3.634,1.017 -3.634,3.032"
             style="fill:#035b9e;fill-opacity:1;fill-rule:nonzero;stroke:none"
             id="path420" /></g><g
           id="g422"
           transform="translate(410.6772,342.9409)"><path
             d="m 0,0 v 0.038 c 0,2.24 -1.714,3.747 -3.521,3.747 -1.883,0 -3.427,-1.393 -3.427,-3.747 V 0 c 0,-2.316 1.562,-3.766 3.427,-3.766 C -1.714,-3.766 0,-2.241 0,0 m -8.436,-0.019 v 0.038 c 0,3.163 2.316,5.065 4.651,5.065 1.807,0 2.975,-0.96 3.728,-2.071 V 8.888 H 1.394 V -4.858 h -1.451 v 1.959 c -0.809,-1.168 -1.921,-2.166 -3.728,-2.166 -2.335,0 -4.651,1.845 -4.651,5.046"
             style="fill:#035b9e;fill-opacity:1;fill-rule:nonzero;stroke:none"
             id="path424" /></g><g
           id="g426"
           transform="translate(422.895,342.9033)"><path
             d="m 0,0 v 0.038 c 0,2.09 -1.563,3.803 -3.615,3.803 -2.11,0 -3.56,-1.713 -3.56,-3.766 V 0.038 c 0,-2.09 1.544,-3.785 3.597,-3.785 C -1.469,-3.747 0,-2.034 0,0 m -8.662,0 v 0.038 c 0,2.768 2.128,5.084 5.084,5.084 2.937,0 5.065,-2.298 5.065,-5.047 V 0.038 c 0,-2.768 -2.166,-5.084 -5.102,-5.084 -2.919,0 -5.047,2.297 -5.047,5.046"
             style="fill:#035b9e;fill-opacity:1;fill-rule:nonzero;stroke:none"
             id="path428" /></g><g
           id="g430"
           transform="translate(439.5737,342.9409)"><path
             d="m 0,0 v 0.038 c 0,2.24 -1.714,3.747 -3.521,3.747 -1.883,0 -3.427,-1.393 -3.427,-3.747 V 0 c 0,-2.316 1.562,-3.766 3.427,-3.766 C -1.714,-3.766 0,-2.241 0,0 m -8.436,-0.019 v 0.038 c 0,3.163 2.316,5.065 4.651,5.065 1.807,0 2.975,-0.96 3.728,-2.071 V 8.888 H 1.394 V -4.858 h -1.451 v 1.959 c -0.809,-1.168 -1.921,-2.166 -3.728,-2.166 -2.335,0 -4.651,1.845 -4.651,5.046"
             style="fill:#035b9e;fill-opacity:1;fill-rule:nonzero;stroke:none"
             id="path432" /></g><g
           id="g434"
           transform="translate(450.8687,343.4868)"><path
             d="M 0,0 C -0.15,1.751 -1.148,3.314 -3.107,3.314 -4.82,3.314 -6.063,1.883 -6.271,0 Z m -7.739,-0.564 v 0.037 c 0,2.805 1.958,5.065 4.67,5.065 2.881,0 4.538,-2.297 4.538,-5.141 0,-0.207 0,-0.301 -0.02,-0.47 h -7.72 c 0.208,-2.109 1.695,-3.295 3.427,-3.295 1.357,0 2.26,0.546 3.07,1.374 L 1.13,-3.803 C 0.15,-4.914 -1.017,-5.63 -2.881,-5.63 c -2.655,0 -4.858,2.053 -4.858,5.066"
             style="fill:#035b9e;fill-opacity:1;fill-rule:nonzero;stroke:none"
             id="path436" /></g><g
           id="g438"
           transform="translate(70.3442,321.1401)"><path
             d="m 0,0 v 0.05 c 0,4.974 3.874,9.048 9.173,9.048 3.124,0 5.074,-0.85 6.873,-2.4 L 13.622,3.774 C 12.297,4.899 11.047,5.549 9.048,5.549 6.249,5.549 4.024,3.074 4.024,0.1 V 0.05 c 0,-3.199 2.2,-5.549 5.299,-5.549 1.425,0 2.649,0.351 3.624,1.05 v 2.5 H 9.073 v 3.324 h 7.598 V -6.223 C 14.872,-7.748 12.397,-8.998 9.198,-8.998 3.749,-8.998 0,-5.199 0,0"
             style="fill:#035b9e;fill-opacity:1;fill-rule:nonzero;stroke:none"
             id="path440" /></g><g
           id="g442"
           transform="translate(98.5171,320.1904)"><path
             d="m 0,0 c -0.225,1.7 -1.225,2.849 -2.824,2.849 -1.6,0 -2.6,-1.124 -2.9,-2.849 z m -9.448,-1.125 v 0.05 c 0,3.825 2.724,6.973 6.624,6.973 4.473,0 6.523,-3.474 6.523,-7.273 0,-0.299 -0.025,-0.625 -0.05,-1 h -9.323 c 0.375,-1.724 1.575,-2.624 3.275,-2.624 1.274,0 2.174,0.4 3.249,1.375 l 2.174,-1.924 c -1.274,-1.575 -3.049,-2.5 -5.474,-2.5 -4.024,0 -6.998,2.824 -6.998,6.923"
             style="fill:#035b9e;fill-opacity:1;fill-rule:nonzero;stroke:none"
             id="path444" /></g><g
           id="g446"
           transform="translate(103.394,314.2168)"><path
             d="M 0,0 1.625,2.5 C 3.099,1.425 4.574,0.9 5.849,0.9 c 1.099,0 1.599,0.4 1.599,1 v 0.05 c 0,0.824 -1.3,1.074 -2.774,1.55 C 2.799,4.024 0.675,4.924 0.675,7.523 v 0.05 c 0,2.725 2.199,4.249 4.899,4.249 1.699,0 3.524,-0.574 4.998,-1.55 L 9.123,7.648 c -1.325,0.775 -2.65,1.25 -3.624,1.25 -0.925,0 -1.4,-0.4 -1.4,-0.925 v -0.05 c 0,-0.7 1.275,-1.15 2.724,-1.599 1.875,-0.6 4.049,-1.525 4.049,-3.974 V 2.3 c 0,-2.975 -2.224,-4.324 -5.123,-4.324 -1.9,0 -3.95,0.625 -5.749,2.024"
             style="fill:#035b9e;fill-opacity:1;fill-rule:nonzero;stroke:none"
             id="path448" /></g><g
           id="g450"
           transform="translate(117.0186,316.2417)"><path
             d="m 0,0 v 6.348 h -1.6 v 3.25 H 0 v 3.423 H 3.799 V 9.598 h 3.15 V 6.348 H 3.799 V 0.625 c 0,-0.875 0.4,-1.3 1.225,-1.3 0.675,0 1.3,0.15 1.874,0.475 V -3.25 C 6.099,-3.724 5.174,-4.024 3.899,-4.024 1.6,-4.024 0,-3.1 0,0"
             style="fill:#035b9e;fill-opacity:1;fill-rule:nonzero;stroke:none"
             id="path452" /></g><path
           d="m 126.344,325.839 h 3.799 v -13.397 h -3.799 z m -0.1,4.849 h 3.999 v -3.374 h -3.999 z"
           style="fill:#035b9e;fill-opacity:1;fill-rule:nonzero;stroke:none"
           id="path454" /><g
           id="g456"
           transform="translate(140.9917,331.7378)"><path
             d="M 0,0 3.274,-1.425 0.025,-4.424 h -2.799 z m 2.224,-12.672 v 0.05 c 0,1.975 -1.424,3.699 -3.524,3.699 -2.174,0 -3.474,-1.65 -3.474,-3.649 v -0.05 c 0,-1.975 1.425,-3.699 3.524,-3.699 2.175,0 3.474,1.65 3.474,3.649 m -10.747,0 v 0.05 c 0,3.849 3.099,6.973 7.273,6.973 4.124,0 7.224,-3.049 7.224,-6.923 v -0.05 c 0,-3.849 -3.1,-6.973 -7.274,-6.973 -4.124,0 -7.223,3.049 -7.223,6.923"
             style="fill:#035b9e;fill-opacity:1;fill-rule:nonzero;stroke:none"
             id="path458" /></g><g
           id="g460"
           transform="translate(149.1182,325.8394)"><path
             d="m 0,0 h 3.799 v -1.9 c 0.875,1.125 2.024,2.15 3.924,2.15 2.899,0 4.549,-1.875 4.549,-4.974 v -8.673 H 8.473 v 7.473 c 0,1.8 -0.825,2.725 -2.3,2.725 -1.474,0 -2.374,-0.925 -2.374,-2.725 v -7.473 H 0 Z"
             style="fill:#035b9e;fill-opacity:1;fill-rule:nonzero;stroke:none"
             id="path462" /></g><g
           id="g464"
           transform="translate(178.291,321.1152)"><path
             d="m 0,0 c 1.924,0 3.049,1.15 3.049,2.649 v 0.05 c 0,1.725 -1.2,2.65 -3.124,2.65 H -3.049 V 0 Z M -6.898,8.823 H 0.25 c 4.174,0 6.698,-2.449 6.698,-6.049 v -0.05 c 0,-4.074 -3.149,-6.148 -7.073,-6.148 h -2.924 v -5.249 h -3.849 z"
             style="fill:#035b9e;fill-opacity:1;fill-rule:nonzero;stroke:none"
             id="path466" /></g><g
           id="g468"
           transform="translate(194.3906,331.7378)"><path
             d="M 0,0 3.274,-1.425 0.025,-4.424 h -2.799 z m -7.398,-14.572 v 8.674 h 3.799 v -7.474 c 0,-1.799 0.825,-2.724 2.3,-2.724 1.474,0 2.374,0.925 2.374,2.724 v 7.474 H 4.874 V -19.295 H 1.075 v 1.899 c -0.875,-1.125 -2.025,-2.149 -3.924,-2.149 -2.9,0 -4.549,1.874 -4.549,4.973"
             style="fill:#035b9e;fill-opacity:1;fill-rule:nonzero;stroke:none"
             id="path470" /></g><g
           id="g472"
           transform="translate(212.3398,319.1157)"><path
             d="m 0,0 v 0.05 c 0,2.224 -1.5,3.699 -3.274,3.699 -1.775,0 -3.249,-1.475 -3.249,-3.699 V 0 c 0,-2.225 1.474,-3.699 3.249,-3.699 C -1.5,-3.699 0,-2.25 0,0 m -6.474,-4.924 v -1.749 h -3.798 v 18.245 h 3.798 V 4.799 c 0.925,1.275 2.175,2.174 4.175,2.174 3.124,0 6.098,-2.449 6.098,-6.923 V 0 c 0,-4.474 -2.924,-6.923 -6.098,-6.923 -2.025,0 -3.275,0.924 -4.175,1.999"
             style="fill:#035b9e;fill-opacity:1;fill-rule:nonzero;stroke:none"
             id="path474" /></g><path
           d="m 218.517,330.688 h 3.799 v -18.246 h -3.799 z"
           style="fill:#035b9e;fill-opacity:1;fill-rule:nonzero;stroke:none"
           id="path476" /><path
           d="m 225.466,325.839 h 3.799 v -13.397 h -3.799 z m -0.1,4.849 h 3.999 v -3.374 h -3.999 z"
           style="fill:#035b9e;fill-opacity:1;fill-rule:nonzero;stroke:none"
           id="path478" /><g
           id="g480"
           transform="translate(231.5918,319.0659)"><path
             d="m 0,0 v 0.05 c 0,3.824 2.924,6.973 7.023,6.973 2.525,0 4.074,-0.85 5.349,-2.25 L 10.047,2.274 C 9.173,3.174 8.373,3.749 6.998,3.749 5.099,3.749 3.749,2.099 3.749,0.1 V 0.05 c 0,-2.074 1.325,-3.699 3.399,-3.699 1.275,0 2.15,0.549 3.075,1.424 l 2.224,-2.249 C 11.147,-5.899 9.647,-6.923 6.973,-6.923 2.949,-6.923 0,-3.799 0,0"
             style="fill:#035b9e;fill-opacity:1;fill-rule:nonzero;stroke:none"
             id="path482" /></g><g
           id="g484"
           transform="translate(253.8394,317.166)"><path
             d="m 0,0 v 0.675 c -0.675,0.3 -1.5,0.5 -2.424,0.5 -1.625,0 -2.625,-0.65 -2.625,-1.85 v -0.05 c 0,-1.025 0.85,-1.624 2.075,-1.624 C -1.175,-2.349 0,-1.399 0,0 m -8.723,-0.875 v 0.05 c 0,2.9 2.224,4.274 5.399,4.274 1.375,0 2.299,-0.224 3.274,-0.55 v 0.226 c 0,1.599 -0.975,2.449 -2.874,2.449 -1.475,0 -2.474,-0.25 -3.7,-0.725 l -0.949,2.9 c 1.474,0.624 2.924,1.074 5.198,1.074 2.1,0 3.55,-0.525 4.524,-1.5 1,-0.999 1.45,-2.474 1.45,-4.274 v -7.773 h -3.674 v 1.45 c -0.925,-1.025 -2.175,-1.7 -4.049,-1.7 -2.524,0 -4.599,1.425 -4.599,4.099"
             style="fill:#035b9e;fill-opacity:1;fill-rule:nonzero;stroke:none"
             id="path486" /></g><g
           id="g488"
           transform="translate(275.8135,325.8394)"><path
             d="M 0,0 H 3.949 L -1.2,-13.722 c -1,-2.724 -2.149,-3.749 -4.399,-3.749 -1.4,0 -2.399,0.35 -3.374,0.925 l 1.275,2.749 c 0.5,-0.3 1.124,-0.525 1.624,-0.525 0.675,0 1,0.2 1.325,0.875 L -9.998,0 h 4.024 l 3.05,-9.123 z"
             style="fill:#035b9e;fill-opacity:1;fill-rule:nonzero;stroke:none"
             id="path490" /></g><g
           id="g492"
           transform="translate(295.6133,321.1152)"><path
             d="m 0,0 c 1.925,0 3.049,1.15 3.049,2.649 v 0.05 c 0,1.725 -1.199,2.65 -3.124,2.65 H -3.049 V 0 Z M -6.898,8.823 H 0.25 c 4.174,0 6.699,-2.449 6.699,-6.049 v -0.05 c 0,-4.074 -3.15,-6.148 -7.074,-6.148 h -2.924 v -5.249 h -3.849 z"
             style="fill:#035b9e;fill-opacity:1;fill-rule:nonzero;stroke:none"
             id="path494" /></g><path
           d="m 304.59,330.688 h 3.799 v -18.246 h -3.799 z"
           style="fill:#035b9e;fill-opacity:1;fill-rule:nonzero;stroke:none"
           id="path496" /><g
           id="g498"
           transform="translate(319.2881,317.166)"><path
             d="m 0,0 v 0.675 c -0.675,0.3 -1.5,0.5 -2.424,0.5 -1.625,0 -2.625,-0.65 -2.625,-1.85 v -0.05 c 0,-1.025 0.85,-1.624 2.075,-1.624 C -1.175,-2.349 0,-1.399 0,0 m -8.723,-0.875 v 0.05 c 0,2.9 2.224,4.274 5.399,4.274 1.375,0 2.3,-0.224 3.274,-0.55 v 0.226 c 0,1.599 -0.974,2.449 -2.874,2.449 -1.475,0 -2.474,-0.25 -3.699,-0.725 l -0.95,2.9 c 1.474,0.624 2.924,1.074 5.198,1.074 2.1,0 3.55,-0.525 4.524,-1.5 1,-0.999 1.45,-2.474 1.45,-4.274 v -7.773 h -3.674 v 1.45 c -0.925,-1.025 -2.175,-1.7 -4.049,-1.7 -2.524,0 -4.599,1.425 -4.599,4.099"
             style="fill:#035b9e;fill-opacity:1;fill-rule:nonzero;stroke:none"
             id="path500" /></g><g
           id="g502"
           transform="translate(325.5649,325.8394)"><path
             d="m 0,0 h 3.799 v -1.9 c 0.875,1.125 2.024,2.15 3.924,2.15 2.899,0 4.549,-1.875 4.549,-4.974 v -8.673 H 8.473 v 7.473 c 0,1.8 -0.825,2.725 -2.3,2.725 -1.474,0 -2.374,-0.925 -2.374,-2.725 v -7.473 H 0 Z"
             style="fill:#035b9e;fill-opacity:1;fill-rule:nonzero;stroke:none"
             id="path504" /></g><g
           id="g506"
           transform="translate(349.3374,320.1904)"><path
             d="m 0,0 c -0.225,1.7 -1.225,2.849 -2.824,2.849 -1.6,0 -2.6,-1.124 -2.9,-2.849 z m -9.448,-1.125 v 0.05 c 0,3.825 2.724,6.973 6.624,6.973 4.473,0 6.523,-3.474 6.523,-7.273 0,-0.299 -0.025,-0.625 -0.05,-1 h -9.323 c 0.375,-1.724 1.575,-2.624 3.275,-2.624 1.274,0 2.174,0.4 3.249,1.375 l 2.174,-1.924 c -1.274,-1.575 -3.049,-2.5 -5.474,-2.5 -4.024,0 -6.998,2.824 -6.998,6.923"
             style="fill:#035b9e;fill-opacity:1;fill-rule:nonzero;stroke:none"
             id="path508" /></g><g
           id="g510"
           transform="translate(363.1875,317.166)"><path
             d="m 0,0 v 0.675 c -0.675,0.3 -1.5,0.5 -2.424,0.5 -1.625,0 -2.625,-0.65 -2.625,-1.85 v -0.05 c 0,-1.025 0.85,-1.624 2.075,-1.624 C -1.175,-2.349 0,-1.399 0,0 m -8.723,-0.875 v 0.05 c 0,2.9 2.224,4.274 5.399,4.274 1.375,0 2.3,-0.224 3.274,-0.55 v 0.226 c 0,1.599 -0.974,2.449 -2.874,2.449 -1.475,0 -2.474,-0.25 -3.699,-0.725 l -0.95,2.9 c 1.474,0.624 2.924,1.074 5.198,1.074 2.1,0 3.55,-0.525 4.524,-1.5 1,-0.999 1.45,-2.474 1.45,-4.274 v -7.773 h -3.674 v 1.45 c -0.925,-1.025 -2.175,-1.7 -4.049,-1.7 -2.524,0 -4.599,1.425 -4.599,4.099"
             style="fill:#035b9e;fill-opacity:1;fill-rule:nonzero;stroke:none"
             id="path512" /></g><g
           id="g514"
           transform="translate(369.4644,325.8394)"><path
             d="m 0,0 h 3.799 v -1.9 c 0.875,1.125 2.024,2.15 3.949,2.15 1.774,0 3.074,-0.75 3.774,-2.125 1.175,1.4 2.574,2.125 4.399,2.125 2.824,0 4.524,-1.7 4.524,-4.924 v -8.723 h -3.799 v 7.473 c 0,1.8 -0.8,2.725 -2.225,2.725 -1.424,0 -2.299,-0.925 -2.299,-2.725 v -7.473 H 8.323 v 7.473 c 0,1.8 -0.8,2.725 -2.225,2.725 -1.424,0 -2.299,-0.925 -2.299,-2.725 v -7.473 H 0 Z"
             style="fill:#035b9e;fill-opacity:1;fill-rule:nonzero;stroke:none"
             id="path516" /></g><path
           d="m 392.789,325.839 h 3.799 v -13.397 h -3.799 z m -0.1,4.849 h 3.999 v -3.374 h -3.999 z"
           style="fill:#035b9e;fill-opacity:1;fill-rule:nonzero;stroke:none"
           id="path518" /><g
           id="g520"
           transform="translate(408.3618,320.1904)"><path
             d="m 0,0 c -0.225,1.7 -1.225,2.849 -2.824,2.849 -1.6,0 -2.6,-1.124 -2.9,-2.849 z m -9.448,-1.125 v 0.05 c 0,3.825 2.724,6.973 6.624,6.973 4.473,0 6.523,-3.474 6.523,-7.273 0,-0.299 -0.025,-0.625 -0.05,-1 h -9.323 c 0.375,-1.724 1.575,-2.624 3.275,-2.624 1.274,0 2.174,0.4 3.249,1.375 l 2.174,-1.924 c -1.274,-1.575 -3.049,-2.5 -5.474,-2.5 -4.024,0 -6.998,2.824 -6.998,6.923"
             style="fill:#035b9e;fill-opacity:1;fill-rule:nonzero;stroke:none"
             id="path522" /></g><g
           id="g524"
           transform="translate(414.2886,325.8394)"><path
             d="m 0,0 h 3.799 v -1.9 c 0.875,1.125 2.024,2.15 3.924,2.15 2.899,0 4.549,-1.875 4.549,-4.974 v -8.673 H 8.473 v 7.473 c 0,1.8 -0.825,2.725 -2.3,2.725 -1.474,0 -2.374,-0.925 -2.374,-2.725 v -7.473 H 0 Z"
             style="fill:#035b9e;fill-opacity:1;fill-rule:nonzero;stroke:none"
             id="path526" /></g><g
           id="g528"
           transform="translate(429.8882,316.2417)"><path
             d="m 0,0 v 6.348 h -1.6 v 3.25 H 0 v 3.423 H 3.799 V 9.598 h 3.15 V 6.348 H 3.799 V 0.625 c 0,-0.875 0.4,-1.3 1.225,-1.3 0.675,0 1.3,0.15 1.874,0.475 V -3.25 C 6.099,-3.724 5.174,-4.024 3.899,-4.024 1.6,-4.024 0,-3.1 0,0"
             style="fill:#035b9e;fill-opacity:1;fill-rule:nonzero;stroke:none"
             id="path530" /></g><g
           id="g532"
           transform="translate(449.1357,319.0659)"><path
             d="m 0,0 v 0.05 c 0,1.974 -1.424,3.699 -3.524,3.699 -2.174,0 -3.474,-1.65 -3.474,-3.649 V 0.05 c 0,-1.975 1.425,-3.699 3.524,-3.699 C -1.299,-3.649 0,-2 0,0 m -10.747,0 v 0.05 c 0,3.849 3.099,6.973 7.273,6.973 C 0.65,7.023 3.75,3.974 3.75,0.1 V 0.05 c 0,-3.849 -3.1,-6.973 -7.274,-6.973 -4.124,0 -7.223,3.049 -7.223,6.923"
             style="fill:#035b9e;fill-opacity:1;fill-rule:nonzero;stroke:none"
             id="path534" /></g></g></g></g></svg>
